<svg width="36" height="28" viewBox="0 0 36 28" fill="none" xmlns="http://www.w3.org/2000/svg">
<path d="M12.7424 0.878174L14.628 4.35142C13.5694 5.84969 12.577 7.51821 11.6507 9.35699C10.7906 11.1958 10.2944 13.1026 10.162 15.0776L15.6205 16.0992V27.8469H0.436127V19.4703C0.436127 14.635 1.52781 10.7531 3.71118 7.82467C5.96071 4.82814 8.97111 2.51264 12.7424 0.878174ZM32.3927 0.878174L34.2783 4.35142C33.2197 5.84969 32.2273 7.51821 31.301 9.35699C30.4409 11.1958 29.9447 13.1026 29.8124 15.0776L35.2708 16.0992V27.8469H20.0864V19.4703C20.0864 14.635 21.1781 10.7531 23.3615 7.82467C25.611 4.82814 28.6214 2.51264 32.3927 0.878174Z" fill="white"/>
</svg>
